<svg width="107" height="143" viewBox="0 0 107 143" fill="none" xmlns="http://www.w3.org/2000/svg">
<path d="M53.1221 142.391C29.4102 142.391 7.89009 130.037 0.716728 106.325L27.2183 99.351C31.8013 109.513 39.9709 115.69 52.9228 115.69C66.871 115.69 76.2363 106.724 76.2363 92.3769C76.2363 79.2257 68.0666 70.6575 54.7162 70.6575C47.1443 70.6575 40.3695 73.0486 35.388 76.2368L26.222 59.8975L61.6903 26.8203H7.49157V0.517994H97.9556V22.2373L65.8747 50.5323H67.2696C90.3837 51.7278 106.524 68.4657 106.524 93.1739C106.524 124.059 82.0148 142.391 53.1221 142.391Z" fill="url(#paint0_linear_185_3470)" fill-opacity="0.26"/>
<defs>
<linearGradient id="paint0_linear_185_3470" x1="54.833" y1="1" x2="54.833" y2="140" gradientUnits="userSpaceOnUse">
<stop stop-color="white"/>
<stop offset="1" stop-color="white" stop-opacity="0.7"/>
</linearGradient>
</defs>
</svg>
