<svg width="31" height="30" viewBox="0 0 31 30" fill="none" xmlns="http://www.w3.org/2000/svg">
<path fill-rule="evenodd" clip-rule="evenodd" d="M29.0509 20.9911C29.539 21.4793 29.539 22.2707 29.0509 22.7589L23.4259 28.3839C22.9377 28.872 22.1463 28.872 21.6581 28.3839L19.1581 25.8839C18.67 25.3957 18.67 24.6043 19.1581 24.1161C19.6463 23.628 20.4377 23.628 20.9259 24.1161L22.542 25.7322L27.2831 20.9911C27.7713 20.503 28.5627 20.503 29.0509 20.9911Z" fill="#6200D1"/>
<path fill-rule="evenodd" clip-rule="evenodd" d="M15.667 1.25C8.07308 1.25 1.91699 7.40608 1.91699 15C1.91699 22.5939 8.07308 28.75 15.667 28.75C16.1332 28.75 16.594 28.7268 17.0483 28.6815C17.086 28.6777 16.9918 28.6871 17.0006 28.686C17.4832 28.6239 17.7093 27.9906 17.3752 27.6369C17.3691 27.6304 17.4045 27.6658 17.3903 27.6516C15.9259 26.1872 15.9259 23.8128 17.3903 22.3483C18.8039 20.9348 21.0652 20.8857 22.5377 22.201L25.5153 19.2233C26.2171 18.5216 27.1278 18.1561 28.0472 18.1269C28.4906 18.1128 28.7123 18.1058 28.8304 18.0495C28.9494 17.9929 29.0141 17.9361 29.0859 17.8256C29.1571 17.7159 29.1827 17.5605 29.2339 17.2496C29.3543 16.5176 29.417 15.7661 29.417 15C29.417 7.40608 23.2609 1.25 15.667 1.25ZM15.667 6.25C16.3573 6.25 16.917 6.80964 16.917 7.5V14.2275L21.226 16.382C21.8435 16.6907 22.0938 17.4415 21.785 18.059C21.4763 18.6765 20.7254 18.9268 20.108 18.618L15.108 16.118C14.6845 15.9063 14.417 15.4735 14.417 15V7.5C14.417 6.80964 14.9766 6.25 15.667 6.25Z" fill="#6200D1"/>
</svg>
