<svg width="28" height="28" viewBox="0 0 28 28" fill="none" xmlns="http://www.w3.org/2000/svg">
<path d="M9.33301 16.333C9.33301 16.333 11.083 18.6663 13.9997 18.6663C16.9163 18.6663 18.6663 16.333 18.6663 16.333M17.4997 10.4997H17.5113M9.33301 10.4997H11.6663M25.6663 13.9997C25.6663 20.443 20.443 25.6663 13.9997 25.6663C7.55635 25.6663 2.33301 20.443 2.33301 13.9997C2.33301 7.55635 7.55635 2.33301 13.9997 2.33301C20.443 2.33301 25.6663 7.55635 25.6663 13.9997ZM18.083 10.4997C18.083 10.8218 17.8218 11.083 17.4997 11.083C17.1775 11.083 16.9163 10.8218 16.9163 10.4997C16.9163 10.1775 17.1775 9.91634 17.4997 9.91634C17.8218 9.91634 18.083 10.1775 18.083 10.4997Z" stroke="#28242A" stroke-width="1.8" stroke-linecap="round" stroke-linejoin="round"/>
</svg>
