<svg width="30" height="30" viewBox="0 0 30 30" fill="none" xmlns="http://www.w3.org/2000/svg">
<path fill-rule="evenodd" clip-rule="evenodd" d="M15 1.25C7.40608 1.25 1.25 7.40608 1.25 15C1.25 22.5939 7.40608 28.75 15 28.75C22.5939 28.75 28.75 22.5939 28.75 15C28.75 7.40608 22.5939 1.25 15 1.25ZM13.4693 12.3394C13.9052 11.8041 13.8247 11.0168 13.2894 10.5808C12.7541 10.1448 11.9668 10.2254 11.5308 10.7607C11.2435 11.1134 10.909 11.25 10.625 11.25C10.3536 11.25 10.0265 11.1238 9.70463 10.743C9.25895 10.2158 8.47025 10.1497 7.94304 10.5954C7.41583 11.0411 7.34973 11.8298 7.79542 12.357C8.49852 13.1887 9.48395 13.75 10.625 13.75C11.7536 13.75 12.7691 13.1991 13.4693 12.3394ZM22.0394 10.5808C22.5747 11.0168 22.6552 11.8041 22.2193 12.3394C21.5191 13.1991 20.5036 13.75 19.375 13.75C18.2339 13.75 17.2485 13.1887 16.5454 12.357C16.0997 11.8298 16.1658 11.0411 16.693 10.5954C17.2203 10.1497 18.0089 10.2158 18.4546 10.743C18.7765 11.1238 19.1036 11.25 19.375 11.25C19.659 11.25 19.9935 11.1134 20.2808 10.7607C20.7168 10.2254 21.5041 10.1448 22.0394 10.5808ZM10.9961 16.7448C10.5809 16.197 9.80057 16.0871 9.25003 16.5C8.69774 16.9142 8.58581 17.6977 9.00003 18.25C9.04216 18.3045 9.08496 18.3583 9.12923 18.411C9.20254 18.4984 9.30628 18.6167 9.43934 18.7555C9.70443 19.0322 10.0918 19.3965 10.5929 19.761C11.5904 20.4863 13.0931 21.25 15 21.25C16.9069 21.25 18.4097 20.4863 19.4071 19.761C19.9082 19.3965 20.2956 19.0322 20.5607 18.7555C20.6938 18.6167 20.7975 18.4984 20.8708 18.411L21 18.25C21.4142 17.6977 21.3023 16.9142 20.75 16.5C20.1995 16.0871 19.4192 16.197 19.004 16.7448L18.9981 16.7522C18.9907 16.7616 18.9766 16.7792 18.9559 16.8039C18.9144 16.8532 18.8473 16.9302 18.7557 17.0258C18.5716 17.2179 18.2949 17.4786 17.9367 17.7391C17.2154 18.2637 16.2181 18.75 15 18.75C13.7819 18.75 12.7847 18.2637 12.0634 17.7391C11.7051 17.4786 11.4284 17.2179 11.2443 17.0258C11.1528 16.9302 11.0856 16.8532 11.0442 16.8039C11.0235 16.7792 11.0093 16.7616 11.0019 16.7522L10.9961 16.7448Z" fill="#6200D1"/>
</svg>
