<svg width="28" height="28" viewBox="0 0 28 28" fill="none" xmlns="http://www.w3.org/2000/svg">
<path d="M13.9997 8.16634H8.74967C7.97613 8.16634 7.23426 7.85905 6.68728 7.31207C6.1403 6.76509 5.83301 6.02322 5.83301 5.24967C5.83301 4.47613 6.1403 3.73426 6.68728 3.18728C7.23426 2.6403 7.97613 2.33301 8.74967 2.33301C12.833 2.33301 13.9997 8.16634 13.9997 8.16634ZM13.9997 8.16634H19.2497C20.0232 8.16634 20.7651 7.85905 21.3121 7.31207C21.8591 6.76509 22.1663 6.02322 22.1663 5.24967C22.1663 4.47613 21.8591 3.73426 21.3121 3.18728C20.7651 2.6403 20.0232 2.33301 19.2497 2.33301C15.1663 2.33301 13.9997 8.16634 13.9997 8.16634ZM13.9997 8.16634L13.9997 25.6663M2.33301 16.333H25.6663M2.33301 11.8997L2.33301 21.933C2.33301 23.2398 2.33301 23.8932 2.58733 24.3923C2.81103 24.8314 3.16799 25.1883 3.60703 25.412C4.10616 25.6663 4.75955 25.6663 6.06634 25.6663L21.933 25.6663C23.2398 25.6663 23.8932 25.6663 24.3923 25.412C24.8314 25.1883 25.1883 24.8314 25.412 24.3923C25.6663 23.8932 25.6663 23.2398 25.6663 21.933V11.8997C25.6663 10.5929 25.6663 9.93949 25.412 9.44037C25.1883 9.00132 24.8314 8.64437 24.3923 8.42066C23.8932 8.16634 23.2398 8.16634 21.933 8.16634L6.06634 8.16634C4.75955 8.16634 4.10616 8.16634 3.60703 8.42066C3.16799 8.64436 2.81103 9.00132 2.58733 9.44036C2.33301 9.93949 2.33301 10.5929 2.33301 11.8997Z" stroke="#28242A" stroke-width="1.8" stroke-linecap="round" stroke-linejoin="round"/>
</svg>
