<svg width="28" height="28" viewBox="0 0 28 28" fill="none" xmlns="http://www.w3.org/2000/svg">
<path d="M18.1361 11.5793C18.5724 10.8042 18.9362 10.1048 19.1605 9.57242C20.2499 6.98739 19.1727 4.0139 16.5394 2.80098C13.9062 1.58807 11.262 2.84575 10.1015 5.27409C7.88234 3.75133 4.92205 3.97496 3.28954 6.35128C1.65703 8.7276 2.16939 11.832 4.40534 13.5261C5.42013 14.2949 7.42709 15.4279 9.31662 16.4362M19.0131 13.7079C18.5206 11.062 16.2693 9.1269 13.4346 9.65285C10.5999 10.1788 8.76703 12.7363 9.15025 15.5152C9.45813 17.7478 11.1576 22.9862 11.8138 24.9593C11.9034 25.2286 11.9481 25.3632 12.0368 25.4571C12.114 25.5389 12.2167 25.5982 12.3261 25.6241C12.4518 25.654 12.5907 25.6254 12.8687 25.5684C14.9056 25.1501 20.2919 24.0027 22.3794 23.153C24.9776 22.0954 26.3184 19.2312 25.3141 16.5115C24.3098 13.7919 21.5507 12.8114 19.0131 13.7079Z" stroke="#28242A" stroke-width="1.8" stroke-linecap="round" stroke-linejoin="round"/>
</svg>
