<svg width="61" height="61" viewBox="0 0 61 61" fill="none" xmlns="http://www.w3.org/2000/svg">
<g clip-path="url(#clip0_103_120)">
<rect width="60" height="60" transform="translate(0.773438 0.875)" fill="url(#paint0_linear_103_120)"/>
<path opacity="0.5" d="M31.3551 31.1071L43.6105 26.2049V34.3555C42.7337 33.7952 41.6955 33.5427 40.6594 33.6377C39.6232 33.7328 38.6482 34.1699 37.888 34.8803C37.1278 35.5907 36.6257 36.5339 36.4607 37.5612C36.2958 38.5885 36.4774 39.6415 36.9771 40.5542C37.4767 41.4668 38.2659 42.1872 39.2202 42.6018C40.1745 43.0164 41.2396 43.1016 42.2477 42.844C43.2557 42.5863 44.1494 42.0005 44.7877 41.1789C45.426 40.3572 45.7728 39.3465 45.7732 38.306V24.5281C45.7732 22.8801 45.7732 21.4989 45.6579 20.3974C45.6416 20.2456 45.6224 20.0942 45.6002 19.9432C45.4877 19.1906 45.2916 18.4898 44.9096 17.903C44.6761 17.5429 44.372 17.2339 44.0156 16.9947L44.0056 16.9875C42.9848 16.3098 41.8385 16.3574 40.6577 16.6588C39.5158 16.95 38.0999 17.5426 36.364 18.2692L33.3448 19.5323C32.5302 19.8725 31.841 20.1623 31.3004 20.4608C30.7236 20.778 30.2291 21.1529 29.8571 21.7123C29.4851 22.2717 29.3294 22.8729 29.2588 23.5275C29.1924 24.1417 29.1924 24.89 29.1924 25.7724V37.2376C28.3157 36.6774 27.2774 36.4249 26.2413 36.5199C25.2052 36.6149 24.2302 37.0521 23.47 37.7625C22.7097 38.4729 22.2076 39.4161 22.0427 40.4434C21.8777 41.4707 22.0594 42.5237 22.559 43.4363C23.0586 44.349 23.8478 45.0694 24.8021 45.484C25.7564 45.8986 26.8215 45.9838 27.8296 45.7261C28.8377 45.4685 29.7313 44.8827 30.3696 44.061C31.008 43.2394 31.3547 42.2287 31.3551 41.1882V31.1071Z" fill="#9A7AD3"/>
<path opacity="0.5" d="M24.1452 15.9564C24.1452 15.6696 24.0313 15.3945 23.8285 15.1917C23.6257 14.9889 23.3506 14.875 23.0638 14.875C22.777 14.875 22.502 14.9889 22.2992 15.1917C22.0964 15.3945 21.9825 15.6696 21.9825 15.9564V24.2612C21.1057 23.7009 20.0675 23.4484 19.0313 23.5434C17.9952 23.6385 17.0202 24.0756 16.26 24.786C15.4998 25.4964 14.9976 26.4396 14.8327 27.4669C14.6678 28.4942 14.8494 29.5472 15.3491 30.4598C15.8487 31.3725 16.6379 32.0929 17.5921 32.5075C18.5464 32.9221 19.6116 33.0073 20.6196 32.7496C21.6277 32.492 22.5213 31.9062 23.1597 31.0845C23.798 30.2629 24.1447 29.2522 24.1452 28.2117V20.289C25.153 21.0157 26.3511 21.3631 27.3892 21.3631C27.676 21.3631 27.9511 21.2492 28.1539 21.0464C28.3567 20.8436 28.4706 20.5686 28.4706 20.2818C28.4706 19.995 28.3567 19.7199 28.1539 19.5171C27.9511 19.3143 27.676 19.2004 27.3892 19.2004C26.6054 19.1816 25.8503 18.9015 25.2438 18.4045C24.6181 17.8898 24.1452 17.1069 24.1452 15.9564Z" fill="#9A7AD3"/>
</g>
<defs>
<linearGradient id="paint0_linear_103_120" x1="10" y1="1.49012e-06" x2="55" y2="60" gradientUnits="userSpaceOnUse">
<stop stop-color="#26193F"/>
<stop offset="1" stop-color="#4A3274"/>
</linearGradient>
<clipPath id="clip0_103_120">
<path d="M0.773438 6.875C0.773438 3.56129 3.45973 0.875 6.77344 0.875H54.7734C58.0871 0.875 60.7734 3.56129 60.7734 6.875V54.875C60.7734 58.1887 58.0871 60.875 54.7734 60.875H6.77344C3.45973 60.875 0.773438 58.1887 0.773438 54.875V6.875Z" fill="white"/>
</clipPath>
</defs>
</svg>
