<svg width="158" height="28" viewBox="0 0 158 28" fill="none" xmlns="http://www.w3.org/2000/svg">
<path d="M10.642 27.408C8.76067 27.408 6.936 27.1587 5.168 26.66C3.42267 26.1387 2.01733 25.47 0.952 24.654L2.822 20.506C3.842 21.254 5.05467 21.8547 6.46 22.308C7.86533 22.7613 9.27067 22.988 10.676 22.988C12.24 22.988 13.396 22.7613 14.144 22.308C14.892 21.832 15.266 21.2087 15.266 20.438C15.266 19.8713 15.0393 19.4067 14.586 19.044C14.1553 18.6587 13.5887 18.3527 12.886 18.126C12.206 17.8993 11.2767 17.65 10.098 17.378C8.28467 16.9473 6.8 16.5167 5.644 16.086C4.488 15.6553 3.49067 14.964 2.652 14.012C1.836 13.06 1.428 11.7907 1.428 10.204C1.428 8.82133 1.802 7.57467 2.55 6.464C3.298 5.33067 4.42 4.43533 5.916 3.778C7.43467 3.12067 9.282 2.792 11.458 2.792C12.9767 2.792 14.4613 2.97333 15.912 3.336C17.3627 3.69867 18.632 4.22 19.72 4.9L18.02 9.082C15.8213 7.83533 13.6227 7.212 11.424 7.212C9.88267 7.212 8.738 7.46133 7.99 7.96C7.26467 8.45867 6.902 9.116 6.902 9.932C6.902 10.748 7.32133 11.36 8.16 11.768C9.02133 12.1533 10.3247 12.5387 12.07 12.924C13.8833 13.3547 15.368 13.7853 16.524 14.216C17.68 14.6467 18.666 15.3267 19.482 16.256C20.3207 17.1853 20.74 18.4433 20.74 20.03C20.74 21.39 20.3547 22.6367 19.584 23.77C18.836 24.8807 17.7027 25.7647 16.184 26.422C14.6653 27.0793 12.818 27.408 10.642 27.408ZM35.1456 26.116C34.6243 26.5013 33.9783 26.796 33.2076 27C32.4596 27.1813 31.6776 27.272 30.8616 27.272C28.663 27.272 26.9743 26.7167 25.7956 25.606C24.617 24.4953 24.0276 22.8633 24.0276 20.71V4.662H29.3316V9.116H33.8536V13.196H29.3316V20.642C29.3316 21.4127 29.5243 22.0133 29.9096 22.444C30.295 22.852 30.8503 23.056 31.5756 23.056C32.3916 23.056 33.117 22.8293 33.7516 22.376L35.1456 26.116ZM56.5694 8.708V27H51.5374V24.824C50.8347 25.6173 49.996 26.2293 49.0214 26.66C48.0467 27.068 46.9927 27.272 45.8594 27.272C43.4567 27.272 41.5527 26.5807 40.1474 25.198C38.742 23.8153 38.0394 21.764 38.0394 19.044V8.708H43.3434V18.262C43.3434 21.2087 44.5787 22.682 47.0494 22.682C48.3187 22.682 49.3387 22.274 50.1094 21.458C50.88 20.6193 51.2654 19.384 51.2654 17.752V8.708H56.5694ZM80.1152 1.772V27H75.0492V24.892C73.7345 26.4787 71.8305 27.272 69.3372 27.272C67.6145 27.272 66.0505 26.8867 64.6452 26.116C63.2625 25.3453 62.1745 24.246 61.3812 22.818C60.5878 21.39 60.1912 19.7353 60.1912 17.854C60.1912 15.9727 60.5878 14.318 61.3812 12.89C62.1745 11.462 63.2625 10.3627 64.6452 9.592C66.0505 8.82133 67.6145 8.436 69.3372 8.436C71.6718 8.436 73.4965 9.17267 74.8112 10.646V1.772H80.1152ZM70.2552 22.92C71.5925 22.92 72.7032 22.4667 73.5872 21.56C74.4712 20.6307 74.9132 19.3953 74.9132 17.854C74.9132 16.3127 74.4712 15.0887 73.5872 14.182C72.7032 13.2527 71.5925 12.788 70.2552 12.788C68.8952 12.788 67.7732 13.2527 66.8892 14.182C66.0052 15.0887 65.5632 16.3127 65.5632 17.854C65.5632 19.3953 66.0052 20.6307 66.8892 21.56C67.7732 22.4667 68.8952 22.92 70.2552 22.92ZM85.0242 8.708H90.3282V27H85.0242V8.708ZM87.6762 6.158C86.7015 6.158 85.9082 5.87467 85.2962 5.308C84.6842 4.74133 84.3782 4.03867 84.3782 3.2C84.3782 2.36133 84.6842 1.65867 85.2962 1.092C85.9082 0.525332 86.7015 0.241998 87.6762 0.241998C88.6508 0.241998 89.4442 0.513999 90.0562 1.058C90.6682 1.602 90.9742 2.282 90.9742 3.098C90.9742 3.982 90.6682 4.71867 90.0562 5.308C89.4442 5.87467 88.6508 6.158 87.6762 6.158ZM103.955 27.272C102.028 27.272 100.294 26.8753 98.7527 26.082C97.2341 25.266 96.0441 24.144 95.1827 22.716C94.3214 21.288 93.8907 19.6673 93.8907 17.854C93.8907 16.0407 94.3214 14.42 95.1827 12.992C96.0441 11.564 97.2341 10.4533 98.7527 9.66C100.294 8.844 102.028 8.436 103.955 8.436C105.881 8.436 107.604 8.844 109.123 9.66C110.641 10.4533 111.831 11.564 112.693 12.992C113.554 14.42 113.985 16.0407 113.985 17.854C113.985 19.6673 113.554 21.288 112.693 22.716C111.831 24.144 110.641 25.266 109.123 26.082C107.604 26.8753 105.881 27.272 103.955 27.272ZM103.955 22.92C105.315 22.92 106.425 22.4667 107.287 21.56C108.171 20.6307 108.613 19.3953 108.613 17.854C108.613 16.3127 108.171 15.0887 107.287 14.182C106.425 13.2527 105.315 12.788 103.955 12.788C102.595 12.788 101.473 13.2527 100.589 14.182C99.7047 15.0887 99.2627 16.3127 99.2627 17.854C99.2627 19.3953 99.7047 20.6307 100.589 21.56C101.473 22.4667 102.595 22.92 103.955 22.92Z" fill="#28242A"/>
<path d="M133.858 22.512V27H115.872V23.43L125.052 14.76C126.027 13.8307 126.684 13.0373 127.024 12.38C127.364 11.7 127.534 11.0313 127.534 10.374C127.534 9.422 127.205 8.69667 126.548 8.198C125.913 7.67667 124.973 7.416 123.726 7.416C122.683 7.416 121.743 7.62 120.904 8.028C120.065 8.41333 119.363 9.00267 118.796 9.796L114.784 7.212C115.713 5.82933 116.994 4.75267 118.626 3.982C120.258 3.18867 122.128 2.792 124.236 2.792C126.004 2.792 127.545 3.08667 128.86 3.676C130.197 4.24267 131.229 5.05867 131.954 6.124C132.702 7.16667 133.076 8.402 133.076 9.83C133.076 11.122 132.804 12.3347 132.26 13.468C131.716 14.6013 130.662 15.8933 129.098 17.344L123.624 22.512H133.858ZM157.593 22.002H153.717V27H148.345V22.002H135.527V18.296L146.747 3.2H152.527L142.123 17.514H148.515V13.06H153.717V17.514H157.593V22.002Z" fill="url(#paint0_linear_185_6971)"/>
<defs>
<linearGradient id="paint0_linear_185_6971" x1="-1.262e-08" y1="15" x2="158" y2="15" gradientUnits="userSpaceOnUse">
<stop stop-color="#A559FA"/>
<stop offset="1" stop-color="#6200D1"/>
</linearGradient>
</defs>
</svg>
