<svg width="31" height="30" viewBox="0 0 31 30" fill="none" xmlns="http://www.w3.org/2000/svg">
<path d="M25.293 5.24855C25.1202 5.26219 24.8823 5.30073 24.4597 5.37115L13.4597 7.20449C13.1443 7.25705 12.9761 7.28593 12.8563 7.31532L12.8441 7.31836L12.8431 7.33087C12.8338 7.45385 12.833 7.62453 12.833 7.94428V22.5L12.833 22.5045C12.8306 25.2639 10.5929 27.5 7.83301 27.5C5.07158 27.5 2.83301 25.2614 2.83301 22.5C2.83301 19.7386 5.07158 17.5 7.83301 17.5C8.74373 17.5 9.59758 17.7435 10.333 18.1689L10.333 7.90875C10.333 7.63861 10.3329 7.37132 10.3503 7.14234C10.3695 6.88767 10.4148 6.59162 10.552 6.28567C10.7451 5.85533 11.0559 5.48838 11.4487 5.2272C11.7279 5.04152 12.0125 4.94822 12.2605 4.88735C12.4835 4.83263 12.7472 4.78872 13.0137 4.74434L24.0923 2.8979C24.4552 2.83738 24.8021 2.77952 25.0963 2.7563C25.4138 2.73124 25.8013 2.73267 26.2035 2.88204C26.7514 3.08556 27.2108 3.47466 27.5016 3.9817C27.715 4.35382 27.7802 4.73582 27.8076 5.05318C27.8331 5.3471 27.8331 5.69877 27.833 6.06662L27.833 20C27.833 20.0696 27.8273 20.1378 27.8164 20.2043C27.7093 22.871 25.5135 25 22.8205 25C20.0591 25 17.8205 22.7614 17.8205 20C17.8205 17.2386 20.0591 15 22.8205 15C23.7364 15 24.5948 15.2463 25.333 15.6762V6.11095C25.333 5.68256 25.3319 5.44155 25.317 5.26889L25.3149 5.24695L25.293 5.24855Z" fill="#6200D1"/>
</svg>
