<svg width="45" height="44" viewBox="0 0 45 44" fill="none" xmlns="http://www.w3.org/2000/svg">
<path d="M22.9476 40.3337C33.0728 40.3337 41.2809 32.1255 41.2809 22.0003C41.2809 11.8751 33.0728 3.66699 22.9476 3.66699C12.8224 3.66699 4.61426 11.8751 4.61426 22.0003C4.61426 32.1255 12.8224 40.3337 22.9476 40.3337Z" fill="white"/>
<path d="M18.3643 14.667C19.3768 14.667 20.1973 15.4875 20.1973 16.5V27.5C20.1973 28.5125 19.3768 29.333 18.3643 29.333C17.3517 29.333 16.5312 28.5125 16.5312 27.5V16.5C16.5313 15.4875 17.3517 14.667 18.3643 14.667ZM27.5303 14.667C28.5428 14.667 29.3633 15.4875 29.3633 16.5V27.5C29.3633 28.5125 28.5428 29.333 27.5303 29.333C26.5178 29.333 25.6973 28.5125 25.6973 27.5V16.5C25.6973 15.4875 26.5178 14.667 27.5303 14.667Z" fill="#ED43F0"/>
</svg>
