<svg width="72" height="72" viewBox="0 0 72 72" fill="none" xmlns="http://www.w3.org/2000/svg">
<rect width="71.8941" height="71.8941" rx="35.947" fill="#ED43F0"/>
<path d="M27.3184 23.402C27.3184 21.6287 27.3184 20.742 27.6881 20.2533C28.0102 19.8275 28.5025 19.564 29.0355 19.5322C29.6473 19.4956 30.385 19.9875 31.8605 20.9711L51.0616 33.7718C52.2807 34.5846 52.8903 34.991 53.1028 35.5033C53.2885 35.9511 53.2885 36.4544 53.1028 36.9022C52.8903 37.4144 52.2807 37.8208 51.0616 38.6336L31.8605 51.4343C30.385 52.418 29.6473 52.9098 29.0355 52.8733C28.5025 52.8415 28.0102 52.578 27.6881 52.1522C27.3184 51.6634 27.3184 50.7768 27.3184 49.0034V23.402Z" fill="white" stroke="white" stroke-width="3.13023" stroke-linecap="round" stroke-linejoin="round"/>
</svg>
